<svg width="197" height="55" viewBox="0 0 197 55" fill="none" xmlns="http://www.w3.org/2000/svg">
<g clip-path="url(#clip0_2_47)">
<path d="M43.9998 0H10.9997C4.94932 0 0 4.94932 0 10.9997V43.9998C0 50.0502 4.94932 55 10.9997 55H43.9993C50.0502 55 54.9995 50.0502 54.9995 43.9998V10.9997C55 4.94932 50.0507 0 43.9998 0ZM43.9998 52.2497H10.9997C6.4518 52.2497 2.74979 48.5487 2.74979 43.9998V30.3494C7.37859 19.4596 17.048 13.2044 30.6258 13.2044C36.8727 13.2044 40.4549 16.6393 41.8034 19.415C43.1088 22.0938 42.9475 27.1831 39.3222 28.1063C37.7912 28.4989 35.1701 27.4554 34.3537 25.6236C33.5965 23.9225 34.3807 21.3832 35.5948 20.6582C24.5142 17.8275 12.6671 48.6722 49.9786 49.6498C48.4771 51.2404 46.358 52.2497 43.9998 52.2497Z" fill="white"/>
</g>
<path d="M74.1523 17.9375V35H70.6484V17.9375H74.1523ZM79.4023 17.9375V20.6914H65.4805V17.9375H79.4023ZM92.8555 32.2578V35H83.7734V32.2578H92.8555ZM84.9219 17.9375V35H81.4062V17.9375H84.9219ZM91.6719 24.8867V27.5586H83.7734V24.8867H91.6719ZM92.8438 17.9375V20.6914H83.7734V17.9375H92.8438ZM104.797 29.3398H108.301C108.23 30.4883 107.914 31.5078 107.352 32.3984C106.797 33.2891 106.02 33.9844 105.02 34.4844C104.027 34.9844 102.832 35.2344 101.434 35.2344C100.34 35.2344 99.3594 35.0469 98.4922 34.6719C97.625 34.2891 96.8828 33.7422 96.2656 33.0312C95.6562 32.3203 95.1914 31.4609 94.8711 30.4531C94.5508 29.4453 94.3906 28.3164 94.3906 27.0664V25.8828C94.3906 24.6328 94.5547 23.5039 94.8828 22.4961C95.2188 21.4805 95.6953 20.6172 96.3125 19.9062C96.9375 19.1953 97.6836 18.6484 98.5508 18.2656C99.418 17.8828 100.387 17.6914 101.457 17.6914C102.879 17.6914 104.078 17.9492 105.055 18.4648C106.039 18.9805 106.801 19.6914 107.34 20.5977C107.887 21.5039 108.215 22.5352 108.324 23.6914H104.809C104.77 23.0039 104.633 22.4219 104.398 21.9453C104.164 21.4609 103.809 21.0977 103.332 20.8555C102.863 20.6055 102.238 20.4805 101.457 20.4805C100.871 20.4805 100.359 20.5898 99.9219 20.8086C99.4844 21.0273 99.1172 21.3594 98.8203 21.8047C98.5234 22.25 98.3008 22.8125 98.1523 23.4922C98.0117 24.1641 97.9414 24.9531 97.9414 25.8594V27.0664C97.9414 27.9492 98.0078 28.7266 98.1406 29.3984C98.2734 30.0625 98.4766 30.625 98.75 31.0859C99.0312 31.5391 99.3906 31.8828 99.8281 32.1172C100.273 32.3438 100.809 32.457 101.434 32.457C102.168 32.457 102.773 32.3398 103.25 32.1055C103.727 31.8711 104.09 31.5234 104.34 31.0625C104.598 30.6016 104.75 30.0273 104.797 29.3398ZM121.988 24.8867V27.6289H113.082V24.8867H121.988ZM114.125 17.9375V35H110.609V17.9375H114.125ZM124.496 17.9375V35H120.992V17.9375H124.496ZM137.645 32.293L141.043 17.9375H142.941L143.375 20.3281L139.754 35H137.715L137.645 32.293ZM135.898 17.9375L138.711 32.293L138.477 35H136.203L132.418 17.9375H135.898ZM146.363 32.2344L149.141 17.9375H152.621L148.848 35H146.574L146.363 32.2344ZM144.008 17.9375L147.43 32.3516L147.336 35H145.297L141.652 20.3164L142.121 17.9375H144.008ZM160.953 20.8555L156.312 35H152.574L158.914 17.9375H161.293L160.953 20.8555ZM164.809 35L160.156 20.8555L159.781 17.9375H162.184L168.559 35H164.809ZM164.598 28.6484V31.4023H155.586V28.6484H164.598ZM175.332 31.4375L179.352 17.9375H183.266L177.324 35H174.746L175.332 31.4375ZM171.629 17.9375L175.637 31.4375L176.246 35H173.645L167.738 17.9375H171.629ZM196.309 32.2578V35H187.227V32.2578H196.309ZM188.375 17.9375V35H184.859V17.9375H188.375ZM195.125 24.8867V27.5586H187.227V24.8867H195.125ZM196.297 17.9375V20.6914H187.227V17.9375H196.297Z" fill="white"/>
<defs>
<clipPath id="clip0_2_47">
<rect width="55" height="55" fill="white"/>
</clipPath>
</defs>
</svg>
